<svg id="Layer_1" data-name="Layer 1" xmlns="http://www.w3.org/2000/svg" viewBox="0 0 407.69 239"><title>logo4</title><path d="M136.28,70.38a1.58,1.58,0,0,1,1.48.93,1.9,1.9,0,0,1,.16,1.7q-1.3,2.47-3.44,6.72t-5,9.19q-2.86,4.93-6.38,10a72,72,0,0,1-7.54,9.12,41.93,41.93,0,0,1-8.44,6.71,17.44,17.44,0,0,1-9,2.63,39.94,39.94,0,0,1-14-2.47A30,30,0,0,1,72.48,107a39,39,0,0,1-8-14q-2.94-8.58-2.94-20.93A59.34,59.34,0,0,1,63,59.27a79.72,79.72,0,0,1,3.85-12.51C62.24,44.81,59,42.51,57,39.89s-3.11-4.81-3.44-6.56A16.09,16.09,0,0,1,53.89,26q1-3.16,3.6-3c.43,0,.63.83.57,2.47a28.38,28.38,0,0,0,.49,5.71,18.86,18.86,0,0,0,2.63,6.57q2,3.32,7.12,5a107,107,0,0,1,9.17-16.06A118.65,118.65,0,0,1,88.12,13.33,66.06,66.06,0,0,1,98.44,4.14c3.28-2.26,6-3.5,8-3.7a34.16,34.16,0,0,1,7.62-.08,14.85,14.85,0,0,1,6.39,2.08,10.19,10.19,0,0,1,4,4.94,15.75,15.75,0,0,1,.49,8.34,30,30,0,0,1-4.59,11.2A53.33,53.33,0,0,1,111,38,52.62,52.62,0,0,1,98.2,46.45a34.35,34.35,0,0,1-15,3.4H81.57a5.87,5.87,0,0,1-1.8-.31,75.33,75.33,0,0,0-3.52,13.12A89.11,89.11,0,0,0,75,78.11a41.69,41.69,0,0,0,2.21,13.28,35.39,35.39,0,0,0,6.14,11.42,20.52,20.52,0,0,0,9.42,6.64q5.49,1.86,12.12-1.08T119,96.71q7.45-8.71,15.48-25.24A1.81,1.81,0,0,1,136.28,70.38ZM98,18.5Q93.2,25.61,89.11,32A101.78,101.78,0,0,0,81.9,45.37,36.59,36.59,0,0,0,100.16,40q8.76-5.16,15.48-17.06,4.26-7.41,3.69-11.73c-.39-2.89-1.67-4.58-3.85-5.1s-4.91.23-8.19,2.24S100.9,13.77,98,18.5Z" style="fill:#f4f4f4"/><path d="M193.45,69a1.53,1.53,0,0,1,1.15,2q-1.8,8.81-3.52,16.83A120.31,120.31,0,0,1,187.23,102a33.39,33.39,0,0,1-5.16,9.89,9.39,9.39,0,0,1-7.62,3.78,9.22,9.22,0,0,1-5.16-1.44,14.22,14.22,0,0,1-3.85-3.7,21.35,21.35,0,0,1-2.7-5.21,43.69,43.69,0,0,1-1.72-6,74.1,74.1,0,0,1-1.64-16.37q-5.08,7.73-9.5,13.59-2,2.63-3.93,4.94c-1.31,1.55-2.6,2.94-3.85,4.17a22.77,22.77,0,0,1-3.44,2.86,3.41,3.41,0,0,1-2.71.69,9.08,9.08,0,0,1-6.55-4.47,17,17,0,0,1-2-8.34,39.09,39.09,0,0,1,.57-6q.57-3.54,1.47-7.41t2-7.64a60.9,60.9,0,0,1,2.21-6.56A62.21,62.21,0,0,1,137,62a33.37,33.37,0,0,1,5.4-7.18,17.89,17.89,0,0,1,7.13-4.55q3.93-1.32,8.52,1.31a18.87,18.87,0,0,1,6.8,6.17,22.49,22.49,0,0,1,2.94,6.8,12.6,12.6,0,0,1,.25,5.48c-.33,1.49-.71,2.19-1.15,2.08s-1.06-.66-1.55-1.7-1-2.23-1.56-3.62-1.17-2.81-1.88-4.25a11,11,0,0,0-2.46-3.4,4.59,4.59,0,0,0-3.11-1.23q-1.72,0-4,2.16a27.8,27.8,0,0,0-4.75,6.64,59.11,59.11,0,0,0-3.68,8.57c-1,3-1.94,6.12-2.7,9.26s-1.34,6-1.72,8.5a53,53,0,0,0-.66,6.17c-.06,1.6,0,2.45.25,2.55s1.22-.77,2.7-2.62,3.11-4,4.91-6.41,3.53-4.87,5.16-7.34,2.79-4.27,3.44-5.4a17.25,17.25,0,0,1,3.69-5,7.91,7.91,0,0,1,5.32-1.62,4.31,4.31,0,0,1,2.79.93A7.37,7.37,0,0,1,169,76.56a9.34,9.34,0,0,1,1,3,18.66,18.66,0,0,1,.25,2.86c0,.52.05,1.6.16,3.24s.28,3.53.5,5.64.51,4.3.9,6.56.82,4.35,1.31,6.26a25.36,25.36,0,0,0,1.63,4.7q.9,1.86,1.89,1.86c2.07,0,3.85-1.81,5.32-5.41a128,128,0,0,0,5-16.83q1.8-7.41,2.62-11.27c.55-2.57,1-4.89,1.31-7A1.74,1.74,0,0,1,193.45,69Z" style="fill:#f4f4f4"/><path d="M255.54,67.91c.76.31,1.17.73,1.22,1.24a2.74,2.74,0,0,1-.08,1.23c-.33.83-.87,2.24-1.64,4.25s-1.69,4.27-2.78,6.8-2.32,5.25-3.69,8.18-2.76,5.77-4.17,8.49a77.57,77.57,0,0,1-4.43,7.49,39,39,0,0,1-4.26,5.41,16.46,16.46,0,0,1-8.19,4.63,7.75,7.75,0,0,1-7.7-2.63,13.22,13.22,0,0,1-2.7-5.79,53.54,53.54,0,0,1-1.47-9.34,91.25,91.25,0,0,1-.17-11A50,50,0,0,1,217,76.1a108.19,108.19,0,0,1,4.18-14.59c1.25-3.14,1.61-4.71,1.06-4.71q-.33,0-2.37,3.7t-4.75,9q-2.72,5.25-5.41,11t-4.34,9.73a113.64,113.64,0,0,0-4.59,12.59c-.87,3.14-1.58,5-2.13,5.48a5.26,5.26,0,0,1-2,.46,5.83,5.83,0,0,1-3.12-.62,9.11,9.11,0,0,1-3.19-2.78,16.18,16.18,0,0,1-2.54-6,35.42,35.42,0,0,1-.9-9.11,95.15,95.15,0,0,1,.74-10.42,66.08,66.08,0,0,1,1.88-9.58,25.84,25.84,0,0,1,2.7-6.71,5.87,5.87,0,0,1,3.2-2.78,5.3,5.3,0,0,1,3.11,0,4.47,4.47,0,0,1,2.21,1.54,2.24,2.24,0,0,1,.66,1.7c-.22.62-.55,1.62-1,3s-.87,3-1.31,4.87-.84,3.86-1.23,6a37.33,37.33,0,0,0-.57,6.48,81.89,81.89,0,0,0,.33,11c.33,2.84.65,4,1,3.48a29.86,29.86,0,0,0,1.48-3.24l3.27-7.73q2-4.62,4.26-10t4.42-10.19q2.13-4.86,3.85-8.41a40.85,40.85,0,0,1,2.38-4.48,9.4,9.4,0,0,1,4.67-3.4,8.84,8.84,0,0,1,3.85-.31,6.09,6.09,0,0,1,1.8.39A5,5,0,0,1,230.8,53a8,8,0,0,1,1.47,3.56,17.54,17.54,0,0,1-.32,6.56q-.49,2.77-1.48,7.41c-.65,3.09-1.31,6.41-2,10s-1.23,7.1-1.72,10.65-.85,6.8-1.07,9.73a33.14,33.14,0,0,0,.08,7.11c.27,1.79.9,2.7,1.89,2.7q2.12.15,4.67-2.47a43.44,43.44,0,0,0,5.16-6.72q2.61-4.09,5.24-9.11c1.74-3.35,3.36-6.61,4.83-9.81s2.73-6,3.77-8.57,1.77-4.34,2.21-5.48A1.49,1.49,0,0,1,255.54,67.91Z" style="fill:#f4f4f4"/><path d="M350.87,63.44c.11.2,0,.82-.33,1.85a7.84,7.84,0,0,1-2.45,3.29,17.7,17.7,0,0,1-5.74,3.09,30.61,30.61,0,0,1-10,1.34,61.29,61.29,0,0,1-8.84-.31c.1,1.75.19,3.3.24,4.63s.08,2.47.08,3.4a70,70,0,0,1-.25,8.57,37,37,0,0,1-2.54,10.89,26.35,26.35,0,0,1-6.34,9.42c-2.79,2.67-6.61,4-11.43,4a21.35,21.35,0,0,1-9-2.47,19,19,0,0,1-6.09-5.87q-2.79-4-2.79-11.58a24.34,24.34,0,0,1,2.54-11.58,23.65,23.65,0,0,1,6.39-7.77,26.29,26.29,0,0,1,8.35-4.4,27.89,27.89,0,0,1,8.27-1.42q-.33-6-.57-10.73t-.25-6.56q0-3.24.25-9.27c.17-4,.41-8.2.75-12.58s.8-8.49,1.4-12.35a30.75,30.75,0,0,1,2.24-8.42l-7.22,3.86c-2,1.13-3.94,2.29-5.91,3.47s-3.56,2.19-4.76,3a14.31,14.31,0,0,0-4.93,6.33,19,19,0,0,0-1.31,6.48,14.17,14.17,0,0,0,.49,3.48,17.36,17.36,0,0,0,1.31,3.55,14.48,14.48,0,0,0,1.72,2.7A2.51,2.51,0,0,0,296,42.59a5.45,5.45,0,0,0,2.45-.38c.44-.26,1.26-.13,2.46.38.43.21.52.44.25.7a4.79,4.79,0,0,1-1.4.77,12.09,12.09,0,0,1-2.37.62,16.15,16.15,0,0,1-2.54.23q-2.62,0-5.57-4t-2.95-11a11.12,11.12,0,0,1,2.06-6.41,24.86,24.86,0,0,1,5-5.4,51.29,51.29,0,0,1,6.08-4.25c2.09-1.24,3.79-2.21,5.1-2.93A44.45,44.45,0,0,0,309,8.54q2.39-1.45,4.45-2.93c1.37-1,2.52-1.85,3.45-2.63a5.71,5.71,0,0,0,1.56-1.62c.11-.2.44-.33,1-.38a5.8,5.8,0,0,1,1.81.15A5.72,5.72,0,0,1,323,1.9a1.67,1.67,0,0,1,.82,1.47V5.3c0,.67,0,1.75-.16,3.24s-.22,3.53-.33,6.1-.27,6-.49,10.35q-.33,4.64-.33,10.42t.08,11.81q.09,6,.25,12c.11,4,.27,7.53.49,10.69q3.6.3,7.29.37a35.9,35.9,0,0,0,7.05-.52,21.36,21.36,0,0,0,6.14-2.06,12.22,12.22,0,0,0,4.59-4.23l1-.31A1.32,1.32,0,0,1,350.87,63.44Zm-50.29,46.78q3.93,1.55,6.23-1.69a23.05,23.05,0,0,0,3.35-9.19,81.17,81.17,0,0,0,1.15-13.44c.06-5,0-9.8-.24-14.43a26.92,26.92,0,0,0-5.66.61,31.22,31.22,0,0,0-6.47,2.32,15.84,15.84,0,0,0-7.29,7.33,23.33,23.33,0,0,0-2.53,10.66,22.12,22.12,0,0,0,2.7,10.65A15.29,15.29,0,0,0,300.58,110.22Z" style="fill:#f4f4f4"/><path d="M49.69,131.71a18.65,18.65,0,0,1,7.94,2.44,15.72,15.72,0,0,1,4.54,4.12,10.77,10.77,0,0,1,1.9,4.12,5.07,5.07,0,0,1,.12,2.34c-.16.36-.52.49-1.1.38a5.75,5.75,0,0,1-2-.93,23.2,23.2,0,0,1-2.53-2A15,15,0,0,1,56,139.41a5.26,5.26,0,0,0-2.77-1.9,13.66,13.66,0,0,0-4.14-.59,27,27,0,0,0-5,.49c-1.76.32-3.53.74-5.29,1.24q-.59,2.17-1.27,4.78t-1.38,6Q35.53,152.75,35,157t-.86,9.6q3-.54,5.75-.76c1.85-.14,3.57-.29,5.18-.43a10,10,0,0,1,3.68.16,2.16,2.16,0,0,1,1.39.92,1.17,1.17,0,0,1-.12,1.3,41.52,41.52,0,0,0-7.59.76q-4,.76-8.29,1.41a5.58,5.58,0,0,0-.06,1.36,11.71,11.71,0,0,1,.06,1.35q0,7.71.58,14.16T35.88,198q.57,4.72.92,7.54a8.74,8.74,0,0,1,.11,3.15,3.3,3.3,0,0,1-1.32.43,4.15,4.15,0,0,1-2.48-.38,7.43,7.43,0,0,1-2.76-2.33,12.33,12.33,0,0,1-2.07-5.32,42.8,42.8,0,0,1-.57-5.15c-.16-2.28-.29-4.79-.41-7.54s-.23-5.6-.34-8.57-.29-5.67-.52-8.13c0-.15-.23-.25-.69-.33a10.36,10.36,0,0,0-1.55-.11,12.77,12.77,0,0,0-1.67.11,8.51,8.51,0,0,1-1.15.11,15.76,15.76,0,0,1-5.64.06,17.23,17.23,0,0,1-4.66-1.52,10.59,10.59,0,0,1-3.28-2.5,5,5,0,0,1-1.38-2.76,2.48,2.48,0,0,1,1.38-2.5,8.39,8.39,0,0,1,4-1.3,13.52,13.52,0,0,1,5.24.65,12,12,0,0,1,5.12,3.25q1.5,1.74,2.88,3.37a3.81,3.81,0,0,1,1.15-.22q0-4.12.17-7.32c.12-2.13.31-4.2.58-6.19a44.54,44.54,0,0,1,1.26-6q.87-3,2.25-6.83a86,86,0,0,1-11.57,3.09,29.06,29.06,0,0,1-10.76.06,11.11,11.11,0,0,1-4.72-2A10.36,10.36,0,0,1,.72,140,4.06,4.06,0,0,1,0,137.35a1.41,1.41,0,0,1,1.44-1.3c.3,0,.67.29,1.09.87a19.73,19.73,0,0,0,1.61,1.9,17.85,17.85,0,0,0,2.3,2A6.58,6.58,0,0,0,9.64,142a10.94,10.94,0,0,0,3.8-.71c1.68-.54,3.64-1.23,5.86-2.06l7.25-2.71c2.61-1,5.26-1.86,8-2.66A64.3,64.3,0,0,1,42.44,132,27.4,27.4,0,0,1,49.69,131.71ZM17.23,168.92a23,23,0,0,1,2.31-.11,12.56,12.56,0,0,0,2.41-.22,39.45,39.45,0,0,0-3.16-3.25,10,10,0,0,0-3.4-2.06c-1.69-.65-3-.71-3.8-.17a2.21,2.21,0,0,0-1.15,2.12,3.8,3.8,0,0,0,1.79,2.55A7.89,7.89,0,0,0,17.23,168.92Z" style="fill:#f4f4f4"/><path d="M91.23,179.44c.84.29,1.19.8,1,1.52l-1.09,4.83q-.75,3.3-1.9,7.37c-.77,2.71-1.63,5.52-2.59,8.41a70,70,0,0,1-3.16,8,31.31,31.31,0,0,1-3.68,6.08,6.24,6.24,0,0,1-4,2.65,9.75,9.75,0,0,1-6.68-1.08,11.49,11.49,0,0,1-3.91-4.12,16.52,16.52,0,0,1-1.84-5.37,23.87,23.87,0,0,1-.35-4.94,17.87,17.87,0,0,1,.92-4.17q.81-2.44,1.5-4.94a22.25,22.25,0,0,0,.81-4.72,4.41,4.41,0,0,0-1-3.42,46,46,0,0,0-3.45-3.09,45,45,0,0,1-4.32-4.06,31.37,31.37,0,0,1-3.74-4.89,10.36,10.36,0,0,1-1.61-5.53,13.44,13.44,0,0,1,.69-4.66,8.51,8.51,0,0,1,1.67-2.88,5.77,5.77,0,0,1,2.13-1.46,6,6,0,0,1,2.07-.44,4.23,4.23,0,0,1,2.19,1,8.71,8.71,0,0,1,2.47,3.53,19.41,19.41,0,0,1,1.33,6.56,32.63,32.63,0,0,1-1.39,10l.81.65a49.08,49.08,0,0,1,5.64,6,8.49,8.49,0,0,1,1.78,4,9.8,9.8,0,0,1-.4,3.74,30,30,0,0,0-.92,5.21,41.29,41.29,0,0,0-.23,6.08,18.09,18.09,0,0,0,.8,4.93,7.82,7.82,0,0,0,2,3.31,4.89,4.89,0,0,0,3.22,1.3c.62.07,1.36-.52,2.25-1.79a31.71,31.71,0,0,0,2.7-4.93q1.38-3,2.76-6.84c.92-2.53,1.79-5.08,2.59-7.65s1.5-5,2.07-7.26a57.65,57.65,0,0,0,1.21-5.81A1.33,1.33,0,0,1,91.23,179.44Zm-32.45-19c-.31,0-.69.47-1.15,1.41a9.85,9.85,0,0,0-.81,3.79,16.3,16.3,0,0,0,.86,5.54,19,19,0,0,0,3.86,6.5,28.15,28.15,0,0,0,.34-4.23q0-6.83-1-9.92T58.78,160.46Z" style="fill:#f4f4f4"/><path d="M128.28,179.77a7,7,0,0,1,.52.54.48.48,0,0,1,.06.65q-1.85,4.77-4.26,10a60.52,60.52,0,0,1-5.41,9.44,30.06,30.06,0,0,1-6.56,6.88,11.12,11.12,0,0,1-7.71,2.34,22.23,22.23,0,0,1-7.19-1.85A14.74,14.74,0,0,1,92,203.14a21,21,0,0,1-3.51-7.92,37.09,37.09,0,0,1-.57-11.55,35,35,0,0,1,2.36-10.74,20,20,0,0,1,4-6.34,10.51,10.51,0,0,1,4.66-2.88,14.1,14.1,0,0,1,4.37-.54,18.12,18.12,0,0,1,4.37.92,11.92,11.92,0,0,1,4.32,2.39,6.72,6.72,0,0,1,2.24,3.74c.31,1.45-.27,3.14-1.72,5.1a11.44,11.44,0,0,1-3.34,3.31,19.44,19.44,0,0,1-4,2,24.21,24.21,0,0,1-4,1c-1.31.22-2.46.36-3.45.43a8.78,8.78,0,0,0-.29,1.74c0,.58-.1,1.16-.17,1.73q-.81,10.32.86,15.57t8.11,5a7.5,7.5,0,0,0,4.55-1.69,29.84,29.84,0,0,0,4.43-4.17,43.7,43.7,0,0,0,4.08-5.53q1.9-3,3.4-5.92c1-1.91,1.86-3.65,2.59-5.2s1.24-2.7,1.55-3.42S127.59,179.48,128.28,179.77Zm-20.37-11.72a4.14,4.14,0,0,0-2.3.27,8.22,8.22,0,0,0-2.65,1.85,14.29,14.29,0,0,0-2.58,3.68,25.28,25.28,0,0,0-2,5.7,13.15,13.15,0,0,0,6.16-2.33,12.56,12.56,0,0,0,3.45-3.75,7,7,0,0,0,1-3.58C109,168.81,108.6,168.2,107.91,168.05Z" style="fill:#f4f4f4"/><path d="M166,179.77a7.07,7.07,0,0,1,.51.54.46.46,0,0,1,.06.65q-1.83,4.77-4.25,10a61.33,61.33,0,0,1-5.41,9.44,30.49,30.49,0,0,1-6.56,6.88,11.12,11.12,0,0,1-7.71,2.34,22.29,22.29,0,0,1-7.2-1.85,14.71,14.71,0,0,1-5.75-4.61,21,21,0,0,1-3.51-7.92,36.49,36.49,0,0,1-.57-11.55A35,35,0,0,1,128,172.93a20.14,20.14,0,0,1,4-6.34,10.56,10.56,0,0,1,4.66-2.88,14.16,14.16,0,0,1,4.38-.54,18.22,18.22,0,0,1,4.37.92,11.88,11.88,0,0,1,4.31,2.39,6.79,6.79,0,0,1,2.25,3.74c.3,1.45-.27,3.14-1.73,5.1a11.32,11.32,0,0,1-3.34,3.31,19,19,0,0,1-4,2,24,24,0,0,1-4,1c-1.3.22-2.45.36-3.45.43a9.58,9.58,0,0,0-.29,1.74c0,.58-.09,1.16-.17,1.73q-.81,10.32.86,15.57t8.12,5a7.47,7.47,0,0,0,4.54-1.69,29.36,29.36,0,0,0,4.43-4.17,43.75,43.75,0,0,0,4.09-5.53c1.26-2,2.4-4,3.39-5.92s1.86-3.65,2.59-5.2,1.25-2.7,1.56-3.42S165.34,179.48,166,179.77Zm-20.37-11.72a4.13,4.13,0,0,0-2.3.27,8,8,0,0,0-2.65,1.85,14.55,14.55,0,0,0-2.59,3.68,25.3,25.3,0,0,0-2,5.7,13.07,13.07,0,0,0,6.15-2.33,12.61,12.61,0,0,0,3.46-3.75,7,7,0,0,0,1-3.58C146.71,168.81,146.35,168.2,145.66,168.05Z" style="fill:#f4f4f4"/><path d="M205.5,183.45c.61-.36,1.09-.32,1.44.11s.17.94-.52,1.52q-1.84,1.63-6.45,5.64t-12.19,11a17.27,17.27,0,0,1,2.47,5.48,30.32,30.32,0,0,1,.86,7.75,28.85,28.85,0,0,1-2.24,12,22.55,22.55,0,0,1-5.47,7.7,17.09,17.09,0,0,1-7,3.8,13.09,13.09,0,0,1-6.62.22,9.6,9.6,0,0,1-4.72-2.33,7,7,0,0,1-2.07-4.18,12.74,12.74,0,0,1,.75-5.75,26.8,26.8,0,0,1,4-7.16,70.67,70.67,0,0,1,5.87-7.1q3.57-3.85,7.71-7.87a10.68,10.68,0,0,0-3.16-4.56,8.91,8.91,0,0,0-3.46-1.62,6.28,6.28,0,0,0-2.87,0,8.9,8.9,0,0,1-1.44.32,3.87,3.87,0,0,1-1.67-.59c-.73-.4-1-.78-.86-1.14a21.32,21.32,0,0,0,1.32-1.79c.73-1.05,1.53-2.24,2.42-3.58s1.7-2.64,2.47-3.91a21.08,21.08,0,0,0,1.5-2.76,9.59,9.59,0,0,0,.52-1.9,9.18,9.18,0,0,0,.11-2,3.47,3.47,0,0,0-.46-1.63,1.68,1.68,0,0,0-1.32-.75,4.91,4.91,0,0,0-2.36.48,19.06,19.06,0,0,0-2.88,1.52,24.89,24.89,0,0,0-2.7,2,5.48,5.48,0,0,0-1.62,1.95,3.67,3.67,0,0,1-.57-1.08,2.48,2.48,0,0,1-.12-1.3,4.22,4.22,0,0,1,.69-1.63,9.7,9.7,0,0,1,2-1.79,16,16,0,0,1,3-1.63,18.35,18.35,0,0,1,3.51-1.08,8.4,8.4,0,0,1,3.45-.06c2.23.44,3.7,1.27,4.43,2.5a7.7,7.7,0,0,1,1.1,4,8.12,8.12,0,0,1-.64,2.77,26.48,26.48,0,0,1-1.55,3.36c-.61,1.12-1.26,2.21-2,3.25a13.49,13.49,0,0,1-1.84,2.34,21,21,0,0,1,3.34,1,15.4,15.4,0,0,1,3.22,1.68,16.92,16.92,0,0,1,3.34,3q3.79-3.59,6.67-6.13t5.13-4.45c1.49-1.26,2.81-2.35,4-3.25A26.94,26.94,0,0,1,205.5,183.45Zm-34.64,53.27q1.72.1,4.26-1.74a18.2,18.2,0,0,0,4.66-5.37,27.71,27.71,0,0,0,3.28-19.25l-.69-3.48q-3.69,3.48-6.74,6.84a68.12,68.12,0,0,0-5.12,6.29,29.24,29.24,0,0,0-3.62,6.56,12.5,12.5,0,0,0-.92,5.21,5.33,5.33,0,0,0,1.49,3.53A5.14,5.14,0,0,0,170.86,236.72Z" style="fill:#f4f4f4"/><path d="M241.52,179.77a7.07,7.07,0,0,1,.51.54.48.48,0,0,1,.06.65c-1.23,3.18-2.64,6.51-4.26,10a59.73,59.73,0,0,1-5.41,9.44,30.06,30.06,0,0,1-6.56,6.88,11.09,11.09,0,0,1-7.71,2.34,22.23,22.23,0,0,1-7.19-1.85,14.71,14.71,0,0,1-5.75-4.61,20.81,20.81,0,0,1-3.51-7.92,36.76,36.76,0,0,1-.58-11.55,35.3,35.3,0,0,1,2.36-10.74,20,20,0,0,1,4-6.34,10.56,10.56,0,0,1,4.66-2.88,14.14,14.14,0,0,1,4.37-.54,18.19,18.19,0,0,1,4.38.92,12,12,0,0,1,4.31,2.39,6.79,6.79,0,0,1,2.25,3.74c.3,1.45-.27,3.14-1.73,5.1a11.32,11.32,0,0,1-3.34,3.31,19.19,19.19,0,0,1-4,2,24,24,0,0,1-4,1c-1.3.22-2.45.36-3.45.43a8.78,8.78,0,0,0-.29,1.74c0,.58-.1,1.16-.17,1.73q-.81,10.32.86,15.57t8.12,5a7.47,7.47,0,0,0,4.54-1.69,29.36,29.36,0,0,0,4.43-4.17,43.75,43.75,0,0,0,4.09-5.53q1.89-3,3.39-5.92c1-1.91,1.86-3.65,2.59-5.2s1.25-2.7,1.56-3.42S240.83,179.48,241.52,179.77Zm-20.37-11.72a4.13,4.13,0,0,0-2.3.27,8,8,0,0,0-2.65,1.85,14.3,14.3,0,0,0-2.59,3.68,24.82,24.82,0,0,0-2,5.7,13.07,13.07,0,0,0,6.15-2.33,12.74,12.74,0,0,0,3.46-3.75,7,7,0,0,0,1-3.58C222.2,168.81,221.84,168.2,221.15,168.05Z" style="fill:#f4f4f4"/><path d="M320.8,130.19a20.86,20.86,0,0,1,4.49-2.49,3.38,3.38,0,0,1,2.3-.22,1.24,1.24,0,0,1,.75,1.08,2.25,2.25,0,0,1-.17,1.2,10.2,10.2,0,0,1-4.32,4.23,29.92,29.92,0,0,1-7.88,3.14,49.5,49.5,0,0,1-10,1.47A53,53,0,0,1,295,138q-3-.54-6.1-.92c-2.07-.25-4.15-.45-6.22-.6.08,1.09.21,2.81.41,5.16s.4,5,.63,8.08.48,6.25.75,9.65.49,6.69.69,9.87.34,6.13.46,8.84.17,4.87.17,6.46a59.81,59.81,0,0,1-.58,8.3,36.37,36.37,0,0,1-1.84,7.64,15.93,15.93,0,0,1-3.33,5.65,6.9,6.9,0,0,1-5.18,2.16,14.36,14.36,0,0,1-5.12-.81,12.39,12.39,0,0,1-3.51-1.95,8.51,8.51,0,0,1-2.07-2.39,6.16,6.16,0,0,1-.81-2.11,4.06,4.06,0,0,1,.92-.11,2.05,2.05,0,0,1,1.73,1,11.08,11.08,0,0,0,1.89,2.45c.89.9,2.4,1.35,4.55,1.35,1.07,0,2-.72,2.65-2.17a21.46,21.46,0,0,0,1.61-5.42,56.47,56.47,0,0,0,.75-7q.16-3.8.17-7t-.23-6.83q-.24-3.69-.52-7.38t-.57-7.1c-.2-2.28-.33-4.36-.41-6.24a65.39,65.39,0,0,1,.12-6.78q.22-3.2.57-5.91c.23-1.81.46-3.38.69-4.72s.43-2.33.58-3a97,97,0,0,0-10.36.32,43.88,43.88,0,0,0-8.86,1.63,18.94,18.94,0,0,0-6.5,3.31,9.15,9.15,0,0,0-3.28,5.26c-.84,3.9-1,6.76-.46,8.57a6.8,6.8,0,0,0,2.24,3.74,5.59,5.59,0,0,0,2.82,1.14c.92.07,1.38.29,1.38.65,0,.15-.34.27-1,.38a9.15,9.15,0,0,1-2.59,0,12.5,12.5,0,0,1-3.28-1,7.78,7.78,0,0,1-3.05-2.49,11.78,11.78,0,0,1-2-4.45,19.57,19.57,0,0,1,0-6.94,13.71,13.71,0,0,1,2.64-6.57,15.67,15.67,0,0,1,5.18-4.28,26.62,26.62,0,0,1,6.91-2.44,49.62,49.62,0,0,1,7.71-1,60.86,60.86,0,0,1,7.76,0q3.86.27,7.08.71,4.72.65,10.59,1.08a112.31,112.31,0,0,0,11.56.27A74,74,0,0,0,313,133,20.09,20.09,0,0,0,320.8,130.19Z" style="fill:#f4f4f4"/><path d="M334.73,178.36a.79.79,0,0,1,.69,1.08c-.08.87-.27,2.35-.58,4.45s-.69,4.46-1.15,7.1-1,5.37-1.73,8.19a61.29,61.29,0,0,1-2.41,7.76,24.26,24.26,0,0,1-3.11,5.8,4.83,4.83,0,0,1-3.8,2.28,10.82,10.82,0,0,1-5.75-1.41,11.93,11.93,0,0,1-3.86-3.85,20,20,0,0,1-2.41-5.8,54.51,54.51,0,0,1-1.33-7.38,37.21,37.21,0,0,1-.05-8c.26-2.72.57-5,.92-7s.55-3.21.63-3.9-.23-.31-.92,1.14a27.15,27.15,0,0,0-2.13,6.4q-1,4.23-1.67,8.46t-1,7.54a20.78,20.78,0,0,0-.23,3.74,1.5,1.5,0,0,1-.58,1.25,4.07,4.07,0,0,1-1.84,1,4.78,4.78,0,0,1-2.59-.06,6,6,0,0,1-2.93-2.22,18.06,18.06,0,0,1-2.88-5.86A59.15,59.15,0,0,1,291.74,189a108.88,108.88,0,0,1-1-13.72,119.59,119.59,0,0,1,1-16.82,63.38,63.38,0,0,1,3.05-14,27.85,27.85,0,0,1,3.74-7.22,7,7,0,0,1,4.49-3,7.59,7.59,0,0,1,4.6.75,8.71,8.71,0,0,1,3.22,3.15q1.5,2.28,1.5,6.94a24.23,24.23,0,0,1-1.21,7.16,77.36,77.36,0,0,1-2.93,7.92c-1.15,2.68-2.4,5.24-3.74,7.7s-2.55,4.6-3.63,6.4q.24,4.89.58,9.12c.23,2.82.46,5.27.69,7.37.31,2.46.57,4.77.8,6.94.31-1.88.66-3.86,1-6q.57-2.72,1.32-6t1.9-6.78a36,36,0,0,1,2-5.37,11.78,11.78,0,0,1,1.72-2.77,2.77,2.77,0,0,1,1.56-1,9.75,9.75,0,0,1,1.55-.11,4.81,4.81,0,0,1,1.84.43,3.87,3.87,0,0,1,1.79,1.74,9.9,9.9,0,0,1,1,3.74,29,29,0,0,1-.17,6.45,62.66,62.66,0,0,0-.75,9.55,78.79,78.79,0,0,0,.52,10.2,31,31,0,0,0,1.78,7.75c.81,2,1.86,2.73,3.17,2.23a6.08,6.08,0,0,0,2.3-2.72,33.64,33.64,0,0,0,2.19-5.31q1-3.15,2-6.83c.62-2.46,1.17-4.85,1.67-7.16s.92-4.43,1.27-6.35.59-3.34.75-4.29a.77.77,0,0,1,.4-.75A1.12,1.12,0,0,1,334.73,178.36Zm-34.18-17.8v5.05c0,1.7,0,3.38.11,5,.77-1.37,1.59-2.91,2.48-4.61s1.72-3.43,2.53-5.2,1.53-3.55,2.19-5.32a31.82,31.82,0,0,0,1.43-5,20.26,20.26,0,0,0,.35-6.24,13.09,13.09,0,0,0-1-3.85,4.38,4.38,0,0,0-1.61-1.95,5.06,5.06,0,0,0-1.49-.66c-.31-.07-.73.26-1.27,1a12.92,12.92,0,0,0-1.61,3.69,46.8,46.8,0,0,0-1.44,7.05A81,81,0,0,0,300.55,160.56Z" style="fill:#f4f4f4"/><path d="M354.4,176.4a.78.78,0,0,1,.58,1.09c-.15.79-.46,2-.92,3.69s-1,3.56-1.67,5.69-1.38,4.34-2.19,6.62-1.66,4.43-2.58,6.45a50.82,50.82,0,0,1-2.82,5.37A8.56,8.56,0,0,1,342,208.4a4,4,0,0,1-4.49.06,11.17,11.17,0,0,1-3.8-4.34,25.27,25.27,0,0,1-2.42-7.05,23.6,23.6,0,0,1-.23-8c.31-2.67.6-4.88.87-6.61s.53-3.13.8-4.18a11,11,0,0,1,.75-2.22c.23-.44.46-.69.69-.76a4.43,4.43,0,0,1,1.61.11,4.57,4.57,0,0,1,.92.32l1.5.71a1.73,1.73,0,0,1,.8.65,2.41,2.41,0,0,1,.29,1.08,12.22,12.22,0,0,1-.06,2c-.07.58-.21,1.57-.4,3s-.4,3-.63,4.83-.4,3.69-.52,5.64-.13,3.76-.06,5.42a13.9,13.9,0,0,0,.75,4.18,2.59,2.59,0,0,0,1.9,1.9c.77.15,1.55-.31,2.36-1.36a26.24,26.24,0,0,0,2.53-4.23,57.77,57.77,0,0,0,2.53-6q1.21-3.32,2.25-6.51t1.78-5.91c.5-1.81.86-3.19,1.09-4.13A1,1,0,0,1,354.4,176.4ZM337,167.07c-.16.15-.44.18-.86.11a3.59,3.59,0,0,1-1.33-.54,5.83,5.83,0,0,1-1.26-1.08,2.81,2.81,0,0,1-.7-1.52,2.31,2.31,0,0,1,.18-1.41,6.62,6.62,0,0,1,.52-.87,2.15,2.15,0,0,1,.8-.65,1.12,1.12,0,0,1,.23-.65,1.67,1.67,0,0,1,1-1,4.08,4.08,0,0,1,1.32,0,4.67,4.67,0,0,1,1.67.54,4.81,4.81,0,0,1,1.44,1.25,3,3,0,0,1,.63,1.9,3.65,3.65,0,0,1-.35,1.79,2.8,2.8,0,0,1-.8.92,2.76,2.76,0,0,1-.86.43,2.33,2.33,0,0,1-.52.11,1.57,1.57,0,0,1-.46.27A7.87,7.87,0,0,0,337,167.07Z" style="fill:#f4f4f4"/><path d="M380,180.2a1.21,1.21,0,0,1,.12,1.84,63.31,63.31,0,0,1-5.64,6.35,48,48,0,0,1-4.72,4.07,32.61,32.61,0,0,1-4.49,2.93,58.09,58.09,0,0,1,3.57,5.91,14.72,14.72,0,0,1,1.72,5.37,16.26,16.26,0,0,1-.57,5.1,13.44,13.44,0,0,1-2.13,4.44,11,11,0,0,1-3.63,3.15,10.17,10.17,0,0,1-4.94,1.19,9.26,9.26,0,0,1-8.23-4.23,10.85,10.85,0,0,1-1.61-4,11.45,11.45,0,0,1-.06-4.12,14.08,14.08,0,0,1,2.59-6.57,18,18,0,0,1,5.69-4.71c-1.45-1.67-2.87-3.31-4.25-4.94a27.31,27.31,0,0,1-3.34-4.83,15.24,15.24,0,0,1-1.32-7,16.4,16.4,0,0,1,1.43-6.34,6.81,6.81,0,0,1,3.46-3.58c1.45-.62,3.07-.24,4.83,1.13.31.22.36.46.17.71a10.27,10.27,0,0,0-.75,1.25,11.81,11.81,0,0,0-.86,2.55,16.19,16.19,0,0,0-.17,4.72,13.51,13.51,0,0,0,2.36,6.12q2.13,3.32,4.77,6.78a42.49,42.49,0,0,0,14.27-13.12.75.75,0,0,1,.81-.38A2.23,2.23,0,0,1,380,180.2Zm-20.83,37.31c.92,0,1.9-.7,2.94-2.11s1.55-3.92,1.55-7.54a9.39,9.39,0,0,0-1.32-4.77,31.63,31.63,0,0,0-3.28-4.56,16,16,0,0,0-4.78,4.34,9.21,9.21,0,0,0-2,5.53,13.38,13.38,0,0,0,.8,5.21,6.94,6.94,0,0,0,1.9,2.71,4.71,4.71,0,0,0,2.3,1A14.82,14.82,0,0,0,359.12,217.51Z" style="fill:#f4f4f4"/><path d="M407.68,149.28a16.9,16.9,0,0,1-1.43,7.16q-1.56,3.69-3.51,7.33c-1.31,2.42-2.59,4.77-3.86,7a24.5,24.5,0,0,0-2.59,6.45,46.21,46.21,0,0,0-1,5.53c-.19,1.74-.32,3.28-.4,4.61s-.13,2.44-.17,3.31a3.84,3.84,0,0,1-.29,1.63,10.15,10.15,0,0,1-1.38,1.79,3.46,3.46,0,0,1-2.19,1.25,2.42,2.42,0,0,1-1.26-.44,4.2,4.2,0,0,1-1.33-1.62A13.57,13.57,0,0,1,387.2,190a32.71,32.71,0,0,1-.58-5.53,21.86,21.86,0,0,1,1-7,53.06,53.06,0,0,1,2.59-6.89q1.5-3.24,3.05-5.91a36.57,36.57,0,0,1,2.59-4,22.67,22.67,0,0,0,1.78-3,30.87,30.87,0,0,0,1.5-3.53,26.47,26.47,0,0,0,1-3.47,15,15,0,0,0,.34-3,16.28,16.28,0,0,0-.23-2.72,15.38,15.38,0,0,0-.69-2.71,8.36,8.36,0,0,0-1.2-2.28,3.11,3.11,0,0,0-1.9-1.19,6.64,6.64,0,0,0-2.82.22,17.46,17.46,0,0,0-6.62,3.41,9.85,9.85,0,0,0-2.3,2.66,9.52,9.52,0,0,0-1.27,2.66q-.34,1.24-.57,2.22a11.07,11.07,0,0,0-.23,2.17.91.91,0,0,1-.92.17,3.7,3.7,0,0,1-1.21-.65,4.24,4.24,0,0,1-1.1-1.36,4.19,4.19,0,0,1-.46-1.95,16.66,16.66,0,0,1,.52-3.31,13.54,13.54,0,0,1,2-4.45,14.47,14.47,0,0,1,4-3.9,12.14,12.14,0,0,1,6.27-1.9q7.47-.33,11.62,3.58T407.68,149.28Zm-16.8,49.47a3.36,3.36,0,0,1,2.76,1.08,4.66,4.66,0,0,1,1.27,3,4.74,4.74,0,0,1-1.09,3.15,3.42,3.42,0,0,1-2.71,1.3,3.2,3.2,0,0,1-2.7-1.09,4.29,4.29,0,0,1-1.1-3,4.43,4.43,0,0,1,.93-3.15A3.22,3.22,0,0,1,390.88,198.75Z" style="fill:#f4f4f4"/></svg>